<svg xmlns="http://www.w3.org/2000/svg" width="640" height="760" viewBox="0 0 640 760" fill="none">
  <defs>
    <linearGradient id="bg" x1="0" y1="0" x2="640" y2="760" gradientUnits="userSpaceOnUse">
      <stop stop-color="#0F172A"/>
      <stop offset="1" stop-color="#0B1220"/>
    </linearGradient>
    <linearGradient id="glow" x1="0" y1="0" x2="1" y2="1">
      <stop stop-color="white" stop-opacity="0.38"/>
      <stop offset="1" stop-color="white" stop-opacity="0"/>
    </linearGradient>
  </defs>
  <rect width="640" height="760" rx="44" fill="url(#bg)"/>
  <circle cx="530" cy="102" r="104" fill="#CBD5E1" fill-opacity="0.18"/>
  <circle cx="102" cy="670" r="120" fill="#CBD5E1" fill-opacity="0.10"/>
  <rect x="38" y="38" width="564" height="684" rx="34" fill="url(#glow)" fill-opacity="0.14" stroke="rgba(255,255,255,.18)"/>
  <circle cx="320" cy="220" r="92" fill="#F2C89A"/>
  <path d="M236 198c18-42 52-64 84-64s66 22 84 64c-14-12-38-24-84-24s-70 12-84 24Z" fill="#1F2937" fill-opacity="0.55"/>
  <rect x="238" y="306" width="164" height="168" rx="68" fill="#455A64"/>
  <rect x="194" y="328" width="76" height="176" rx="34" fill="#455A64"/>
  <rect x="370" y="328" width="76" height="176" rx="34" fill="#455A64"/>
  <rect x="252" y="474" width="42" height="130" rx="20" fill="#111827" fill-opacity="0.75"/>
  <rect x="346" y="474" width="42" height="130" rx="20" fill="#111827" fill-opacity="0.75"/>
  <rect x="240" y="598" width="62" height="18" rx="9" fill="#E5E7EB"/>
  <rect x="338" y="598" width="62" height="18" rx="9" fill="#E5E7EB"/>
  <rect x="245" y="352" width="148" height="28" rx="14" fill="#0B1220" fill-opacity="0.25"/>
  <text x="320" y="94" text-anchor="middle" fill="white" font-family="Arial, Helvetica, sans-serif" font-size="42" font-weight="700">Anonimo</text>
  <text x="320" y="666" text-anchor="middle" fill="white" font-family="Arial, Helvetica, sans-serif" font-size="28" font-weight="700" opacity="0.88">Coach Profile</text>
</svg>