<svg xmlns="http://www.w3.org/2000/svg" viewBox="0 0 420 520" role="img" aria-labelledby="t d"><title id="t">Rokky</title><desc id="d">Allenatore stilizzato con cappuccio e taccuino.</desc><defs><linearGradient id="bg" x1="0" y1="0" x2="1" y2="1"><stop stop-color="#10243a"/><stop offset="1" stop-color="#5d2e8c"/></linearGradient><linearGradient id="coat" x1="0" y1="0" x2="0" y2="1"><stop stop-color="#28384e"/><stop offset="1" stop-color="#0c1624"/></linearGradient></defs><rect width="420" height="520" rx="48" fill="url(#bg)"/><circle cx="210" cy="182" r="102" fill="#e5ad7b"/><path d="M105 188c0-93 42-146 105-146s105 53 105 146c-20-31-55-53-105-53s-85 22-105 53z" fill="#111827"/><path d="M125 171c30-48 140-48 170 0l-16-88c-42-36-96-36-138 0z" fill="#1f2937"/><path d="M137 192c22-21 50-30 73-30s51 9 73 30" fill="none" stroke="#342315" stroke-width="12" stroke-linecap="round"/><ellipse cx="168" cy="212" rx="10" ry="12" fill="#10243a"/><ellipse cx="252" cy="212" rx="10" ry="12" fill="#10243a"/><path d="M188 254c14 11 30 11 44 0" fill="none" stroke="#7b3c2a" stroke-width="8" stroke-linecap="round"/><path d="M154 279c29 27 83 27 112 0-8 47-28 70-56 70s-48-23-56-70z" fill="#553727" opacity=".75"/><path d="M66 520c7-116 56-179 144-179s137 63 144 179z" fill="url(#coat)"/><path d="M146 344l64 82 64-82" fill="#f4f0e8"/><path d="M184 386h52l17 134h-86z" fill="#8f60c9"/><rect x="274" y="334" width="92" height="126" rx="14" transform="rotate(10 274 334)" fill="#f5d45c" stroke="#10243a" stroke-width="8"/><path d="M302 367h39M298 389h42M294 411h43" stroke="#10243a" stroke-width="7" stroke-linecap="round"/><circle cx="113" cy="394" r="30" fill="#e5ad7b"/><path d="M99 393l21 12 22-31" fill="none" stroke="#fff" stroke-width="10" stroke-linecap="round" stroke-linejoin="round"/></svg>